<svg width="27" height="28" viewBox="0 0 27 28" fill="none" xmlns="http://www.w3.org/2000/svg">
<path d="M22.875 6.86234L23.9344 7.57682C25.2281 8.44856 26 9.90042 26 11.4616V21.8132C26 24.3972 23.8969 26.5 21.3125 26.5H18.1875C17.9 26.5 17.6667 26.2667 17.6667 25.9792V16.6057C17.6667 15.7443 16.9656 15.0434 16.1042 15.0434H10.8958C10.0344 15.0434 9.33333 15.7443 9.33333 16.6057V25.9792C9.33333 26.2667 9.1 26.5 8.8125 26.5H5.6875C3.10312 26.5 1 24.3972 1 21.8132V11.4616C1 9.90147 1.77187 8.44856 3.06562 7.57682L10.8792 2.30574C12.4698 1.23194 14.5292 1.2309 16.1219 2.30574L21.8333 6.15932L21.9961 6.2638L22.3135 6.48349C22.3135 6.48349 22.5594 6.64046 22.6309 6.70319C22.7023 6.76591 22.875 6.86234 22.875 6.86234Z" stroke="current" stroke-width="2" stroke-linejoin="round"/>
</svg>
