<svg width="27" height="30" viewBox="0 0 27 30" fill="none" xmlns="http://www.w3.org/2000/svg">
<path d="M22.35 5.15914C17.5247 0.283865 9.63401 0.217009 4.72571 5.00983C-0.182587 9.80265 -0.249896 17.6402 4.57539 22.5155C4.63535 22.5761 4.69595 22.6361 4.75718 22.6955L9.22451 26.7951C11.6128 29.1157 15.4272 29.1252 17.8272 26.8165L22.35 22.6651C27.2167 17.8309 27.2167 9.99332 22.35 5.15914Z" stroke="current" stroke-width="2" fill="none" stroke-linejoin="round"/>
<path d="M14.4579 15.1621H18.141C18.5977 15.1621 18.9898 14.7914 18.9898 14.3076C18.9898 13.8237 18.5977 13.453 18.141 13.453H14.4579V9.80617C14.4579 9.32236 14.0658 8.95166 13.6092 8.95166C13.1525 8.95166 12.7604 9.32236 12.7604 9.80617V13.453H9.0773C8.62062 13.453 8.22852 13.8237 8.22852 14.3076C8.22852 14.7914 8.62061 15.1621 9.0773 15.1621H12.7604V18.8089C12.7604 19.2927 13.1525 19.6634 13.6092 19.6634C14.0658 19.6634 14.4579 19.2927 14.4579 18.8089V15.1621Z" fill="current" stroke="current" stroke-width="0.1"/>
</svg>
