<svg width="17" height="17" viewBox="0 0 17 17" fill="none" xmlns="http://www.w3.org/2000/svg">
<path d="M9.2469 0.481697C9.4545 0.348077 9.5583 0.281267 9.6425 0.237737C10.7065 -0.312363 12.0121 0.189727 12.4333 1.31098C12.4666 1.39969 12.4989 1.51884 12.5635 1.75713C12.5933 1.86715 12.6082 1.92217 12.6249 1.97278C12.8267 2.58594 13.312 3.064 13.9281 3.25653C13.979 3.27242 14.0342 3.2865 14.1447 3.31466L14.2946 3.35288C14.8136 3.48519 15.0732 3.55134 15.2627 3.64533C16.1242 4.07254 16.5597 5.05233 16.2996 5.97806C16.2424 6.18173 16.1176 6.4187 15.868 6.8926L15.7959 7.0296C15.7428 7.1304 15.7163 7.1809 15.694 7.2293C15.4241 7.8156 15.4538 8.4962 15.7737 9.0569C15.8002 9.1031 15.831 9.1511 15.8927 9.2469C16.0263 9.4545 16.0931 9.5583 16.1366 9.6425C16.6867 10.7065 16.1847 12.0121 15.0634 12.4333C14.9747 12.4666 14.8556 12.4989 14.6173 12.5635C14.5072 12.5933 14.4522 12.6082 14.4016 12.6249C13.7885 12.8267 13.3104 13.312 13.1179 13.9281C13.102 13.979 13.0879 14.0342 13.0597 14.1447L13.0215 14.2946C12.8892 14.8137 12.823 15.0732 12.7291 15.2627C12.3019 16.1242 11.3221 16.5597 10.3963 16.2996C10.1927 16.2424 9.9557 16.1176 9.4818 15.868L9.3448 15.7959C9.244 15.7428 9.1935 15.7163 9.1451 15.694C8.5588 15.4241 7.8782 15.4538 7.3175 15.7737C7.2713 15.8002 7.2233 15.831 7.1275 15.8927C6.9199 16.0263 6.8161 16.0931 6.7319 16.1367C5.66793 16.6868 4.36231 16.1847 3.94109 15.0634C3.90777 14.9747 3.87547 14.8556 3.81089 14.6173C3.78107 14.5072 3.76616 14.4522 3.7495 14.4016C3.54771 13.7885 3.06239 13.3104 2.44626 13.1179C2.3954 13.102 2.34017 13.0879 2.22971 13.0597L2.07976 13.0215C1.56074 12.8892 1.30123 12.8231 1.1117 12.7291C0.250228 12.3019 -0.185282 11.3221 0.0747977 10.3963C0.132018 10.1927 0.256788 9.9557 0.506338 9.4818L0.578438 9.3448C0.631548 9.244 0.658108 9.1935 0.680388 9.1451C0.950288 8.5588 0.920597 7.8782 0.600637 7.3175C0.574228 7.2713 0.543378 7.2233 0.481688 7.1275C0.348068 6.9199 0.281258 6.8161 0.237738 6.7319C-0.312362 5.66793 0.189727 4.36232 1.31098 3.9411C1.39969 3.90777 1.51883 3.87548 1.75713 3.81089C1.86715 3.78108 1.92216 3.76617 1.97277 3.74951C2.58593 3.54772 3.06399 3.06239 3.25652 2.44627C3.27242 2.39541 3.28649 2.34018 3.31465 2.22972L3.35288 2.07976C3.48518 1.56074 3.55134 1.30123 3.64533 1.1117C4.07253 0.250237 5.05232 -0.185283 5.97806 0.0747968C6.18173 0.132017 6.4187 0.256797 6.8926 0.506347L7.0296 0.578447C7.1304 0.631557 7.1809 0.658107 7.2293 0.680387C7.8156 0.950297 8.4962 0.920597 9.0568 0.600647C9.1031 0.574227 9.1511 0.543387 9.2469 0.481697Z" fill="#3F73C8"/>
</svg>
