<svg width="18" height="15" viewBox="0 0 18 15" fill="current" xmlns="http://www.w3.org/2000/svg">
<path d="M8.19657 14.233L8.19652 14.233C7.00376 13.3483 5.05373 11.8165 3.40675 10.1252C2.58292 9.27915 1.84712 8.40556 1.32016 7.56386C0.788018 6.71386 0.5 5.9454 0.5 5.29834C0.5 4.21984 0.91922 3.00702 1.69091 2.06922C2.45571 1.1398 3.54799 0.5 4.90571 0.5C6.43309 0.5 7.38155 1.24825 7.93211 1.91561C8.20885 2.25108 8.65129 2.36141 9.00002 2.36143C9.34874 2.36145 9.79121 2.25118 10.068 1.9157C10.6187 1.24827 11.5672 0.5 13.0942 0.5C14.4527 0.5 15.545 1.13984 16.3095 2.06926C17.081 3.00708 17.5 4.22008 17.5 5.29905C17.5 5.94638 17.212 6.71496 16.6798 7.56495C16.1529 8.40666 15.4171 9.28018 14.5933 10.1261C12.9464 11.8172 10.9964 13.3486 9.80361 14.2332L9.8036 14.2332C9.32385 14.589 8.67626 14.5889 8.19657 14.233Z" stroke="current" stroke-linecap="round"/>
</svg>
