<svg width="18" height="18" viewBox="0 0 18 18" fill="none" xmlns="http://www.w3.org/2000/svg">
<path d="M10.2469 1.29468C10.4545 1.16106 10.5583 1.09426 10.6425 1.05073C11.7065 0.500625 13.0121 1.00271 13.4333 2.12396C13.4666 2.21267 13.4989 2.33183 13.5635 2.57012C13.5933 2.68014 13.6082 2.73516 13.6249 2.78577C13.8267 3.39893 14.312 3.87699 14.9281 4.06952C14.979 4.08541 15.0342 4.09948 15.1447 4.12765L15.2947 4.16586C15.8137 4.29817 16.0732 4.36432 16.2627 4.45831C17.1242 4.88552 17.5597 5.86532 17.2996 6.79105C17.2424 6.99472 17.1176 7.23169 16.8681 7.70559L16.796 7.84258C16.7429 7.94338 16.7163 7.99389 16.694 8.04228C16.4241 8.62858 16.4538 9.30919 16.7738 9.86989C16.8002 9.91609 16.831 9.96408 16.8927 10.0599C17.0263 10.2675 17.0931 10.3713 17.1367 10.4555C17.6868 11.5195 17.1847 12.8251 16.0634 13.2463C15.9747 13.2796 15.8556 13.3119 15.6173 13.3765C15.5073 13.4063 15.4522 13.4212 15.4016 13.4379C14.7885 13.6397 14.3104 14.125 14.1179 14.7411C14.102 14.792 14.0879 14.8472 14.0598 14.9577L14.0215 15.1076C13.8892 15.6267 13.8231 15.8862 13.7291 16.0757C13.3019 16.9372 12.3221 17.3727 11.3964 17.1126C11.1927 17.0554 10.9557 16.9306 10.4818 16.681L10.3449 16.6089C10.244 16.5558 10.1936 16.5293 10.1452 16.507C9.55878 16.2371 8.87818 16.2668 8.31758 16.5867C8.27128 16.6132 8.22338 16.644 8.12748 16.7057C7.91988 16.8393 7.81608 16.9061 7.73188 16.9497C6.66793 17.4998 5.36232 16.9977 4.94109 15.8764C4.90777 15.7877 4.87548 15.6686 4.81089 15.4303C4.78107 15.3202 4.76617 15.2652 4.74951 15.2146C4.54772 14.6015 4.06239 14.1234 3.44626 13.9309C3.39541 13.915 3.34018 13.9009 3.22972 13.8727L3.07976 13.8345C2.56074 13.7022 2.30123 13.6361 2.1117 13.5421C1.25023 13.1149 0.814718 12.1351 1.0748 11.2093C1.13202 11.0057 1.2568 10.7687 1.50635 10.2948L1.57845 10.1578C1.63156 10.057 1.65811 10.0065 1.68039 9.95809C1.9503 9.37179 1.9206 8.69118 1.60064 8.13048C1.57423 8.08428 1.54339 8.03628 1.48169 7.94049C1.34807 7.73288 1.28126 7.62908 1.23774 7.54488C0.687638 6.48091 1.18973 5.1753 2.31098 4.75409C2.39969 4.72076 2.51884 4.68847 2.75713 4.62388C2.86715 4.59407 2.92216 4.57916 2.97278 4.5625C3.58593 4.36071 4.064 3.87537 4.25653 3.25925C4.27242 3.2084 4.2865 3.15317 4.31466 3.04271L4.35288 2.89275C4.48519 2.37372 4.55134 2.11422 4.64533 1.92469C5.07254 1.06323 6.05232 0.627705 6.97806 0.887785C7.18173 0.945005 7.41868 1.06979 7.89258 1.31934L8.02958 1.39144C8.13038 1.44455 8.18088 1.47109 8.22928 1.49337C8.81558 1.76328 9.49618 1.73358 10.0569 1.41363C10.1031 1.38721 10.1511 1.35637 10.2469 1.29468Z" fill="white" stroke="#3E4C59" stroke-width="1.25" stroke-linecap="round"/>
<path d="M12.4415 7.11084L9.06868 11.3121C8.69598 11.7764 8.00278 11.8142 7.58178 11.3932L6.18848 9.99994" fill="white"/>
<path d="M12.4415 7.11084L9.06868 11.3121C8.69598 11.7764 8.00278 11.8142 7.58178 11.3932L6.18848 9.99994" stroke="#3E4C59" stroke-width="1.25" stroke-linecap="round"/>
</svg>
