<svg width="35" height="31" viewBox="0 0 35 31" fill="none" xmlns="http://www.w3.org/2000/svg">
<path d="M34.5 5C34.5 7.75714 32.2571 10 29.5 10C26.7429 10 24.5 7.75714 24.5 5C24.5 2.24286 26.7429 0 29.5 0C32.2571 0 34.5 2.24286 34.5 5Z" fill="#EF6F3A"/>
<g clip-path="url(#clip0_879_1613)">
<path d="M4.73745 24.75H21.0458C21.5477 24.75 22.0422 24.6291 22.4875 24.3976C22.9328 24.166 23.3158 23.8306 23.6041 23.4198C23.8923 23.0089 24.0774 22.5346 24.1436 22.0371C24.2098 21.5396 24.1551 21.0334 23.9843 20.5615L21.0135 12.3479C20.5061 10.5226 19.4148 8.91374 17.9065 7.76736C16.3982 6.62099 14.5559 6.00022 12.6614 6C10.6892 5.99997 8.77604 6.67249 7.23767 7.90652C5.6993 9.14055 4.62775 10.8623 4.19995 12.7875L1.75203 20.7042C1.60791 21.1716 1.57551 21.6663 1.65744 22.1485C1.73937 22.6307 1.93334 23.0869 2.22375 23.4805C2.51416 23.874 2.8929 24.1939 3.32949 24.4144C3.76608 24.6349 4.24834 24.7499 4.73745 24.75Z" fill="#0F161D"/>
<path d="M7.89587 26.8335C8.13495 28.0109 8.77372 29.0694 9.70394 29.8297C10.6342 30.59 11.7986 31.0054 13 31.0054C14.2015 31.0054 15.3659 30.59 16.2961 29.8297C17.2264 29.0694 17.8651 28.0109 18.1042 26.8335H7.89587Z" fill="#EF6F3A"/>
</g>
<defs>
<clipPath id="clip0_879_1613">
<rect width="25" height="25" fill="white" transform="translate(0.5 6)"/>
</clipPath>
</defs>
</svg>
