<svg width="33" height="35" viewBox="0 0 33 35" fill="none" xmlns="http://www.w3.org/2000/svg">
<path d="M5.2299 27.2356L5.23002 27.2355C5.15291 27.1607 5.07661 27.0852 5.0011 27.0089L5.2299 27.2356ZM5.2299 27.2356L5.23992 27.2448M5.2299 27.2356L5.23992 27.2448M5.23992 27.2448L10.678 32.2353C13.7803 35.2444 18.7286 35.2564 21.8456 32.2622L27.3522 27.2078L27.3595 27.2011M5.23992 27.2448L27.3595 27.2011M27.3595 27.2011L27.3665 27.1942M27.3595 27.2011L27.3665 27.1942M27.3665 27.1942C33.4927 21.1088 33.4932 11.2418 27.3681 5.15593M27.3665 27.1942L27.3681 5.15593M27.3681 5.15593C21.2951 -0.97835 11.367 -1.06193 5.19032 4.96942C-0.988701 11.0031 -1.07354 20.8712 5.001 27.0088L27.3681 5.15593Z" fill="#3AC197" stroke="white"/>
<path d="M21.8862 17.6425C22.4131 17.6425 22.8658 17.2146 22.8658 16.6559C22.8658 16.0972 22.4131 15.6693 21.8862 15.6693H17.3439V11.1711C17.3439 10.6124 16.8912 10.1846 16.3643 10.1846C15.8374 10.1846 15.3847 10.6124 15.3847 11.1711V15.6693H10.8424C10.3155 15.6693 9.86279 16.0972 9.86279 16.6559C9.86279 17.2146 10.3155 17.6425 10.8424 17.6425H15.3847V22.1407C15.3847 22.6994 15.8374 23.1272 16.3643 23.1272C16.8912 23.1272 17.3439 22.6994 17.3439 22.1407V17.6425H21.8862Z" fill="white" stroke="white" stroke-width="0.5"/>
</svg>
