<svg width="105" height="31" viewBox="0 0 105 31" fill="none" xmlns="http://www.w3.org/2000/svg">
<path d="M0 2.49951H8.44413C14.2923 2.49951 16.8883 5.64748 16.8883 9.96654C16.8883 14.2856 14.2923 17.4658 8.44413 17.4658H5.32245V23.7295H0V2.49951ZM8.54565 12.5952C10.8117 12.5952 11.5042 11.4922 11.5042 9.96654C11.5042 8.44091 10.8153 7.37009 8.54565 7.37009H5.32608V12.5952H8.54565Z" fill="current"/>
<path d="M18.0413 3.11574C18.0413 1.32867 19.39 0 21.1956 0C23.0011 0 24.3499 1.33225 24.3499 3.11574C24.3499 4.89923 23.0011 6.23148 21.1956 6.23148C19.39 6.23148 18.0413 4.89923 18.0413 3.11574ZM21.1956 7.69265C22.5552 7.69265 23.661 8.78137 23.661 10.1279V23.7298H18.7301V10.1279C18.7301 8.78495 19.8323 7.69265 21.1956 7.69265Z" fill="current"/>
<path d="M26.42 15.4175C26.42 10.0276 29.6396 7.27002 34.44 7.27002C39.2403 7.27002 42.4599 9.9954 42.4599 15.4175V23.7261H37.529V15.4175C37.529 12.8855 36.2818 11.8147 34.44 11.8147C32.5981 11.8147 31.3509 12.8855 31.3509 15.4175V23.7261H26.42V15.4175Z" fill="current"/>
<path d="M44.4939 25.2876H49.49C49.9831 26.2939 51.1651 26.781 52.8075 26.781C55.2077 26.781 56.5202 25.7747 56.5202 22.6589V21.717C55.5014 23.146 53.8589 23.8909 51.8213 23.8909C48.3697 23.8909 44.0334 21.6526 44.0334 15.7112C44.0334 10.8406 47.6482 7.27002 52.7749 7.27002C57.9015 7.27002 61.4511 10.615 61.4511 15.8723V22.4942C61.4511 28.629 57.539 30.9998 52.8401 30.9998C48.6997 30.9998 45.4801 29.2127 44.4939 25.2876ZM56.5202 15.7112C56.5202 13.4084 55.0083 11.8147 52.7749 11.8147C50.5415 11.8147 49.0296 13.4048 49.0296 15.7112C49.0296 18.0175 50.5415 19.3462 52.7749 19.3462C55.0083 19.3462 56.5202 18.014 56.5202 15.7112Z" fill="current"/>
<path d="M63.0245 15.7112C63.0245 10.8406 66.6393 7.27002 71.766 7.27002C76.8926 7.27002 80.4095 10.8406 80.4095 15.7112V17.0756H68.1512C68.5464 18.9594 69.993 19.801 71.766 19.801C73.18 19.801 74.2314 19.5074 74.855 18.6335H79.9491C78.8976 21.9462 75.8086 24.1523 71.766 24.1523C66.6393 24.1523 63.0245 20.5817 63.0245 15.7112ZM75.3481 13.9886C74.7898 12.334 73.4737 11.6177 71.766 11.6177C70.0583 11.6177 68.7422 12.3626 68.2491 13.9886H75.3481Z" fill="current"/>
<path d="M81.9867 14.608C81.9867 9.60845 84.9453 7.27344 89.2815 7.27344C93.6178 7.27344 96.5437 9.5798 96.5763 14.6402V14.7369H91.6455V14.608C91.6455 12.4663 90.6593 11.8181 89.2779 11.8181C87.8966 11.8181 86.9104 12.4663 86.9104 14.608V23.7296H81.9795V14.608H81.9867Z" fill="current"/>
<circle cx="101.5" cy="20.5" r="3.5" fill="current"/>
</svg>
