<svg width="23" height="36" viewBox="0 0 23 36" fill="none" xmlns="http://www.w3.org/2000/svg">
<g clip-path="url(#clip0_879_1625)">
<path d="M1.81198e-05 2.03201L1.81198e-05 24.1567C1.81198e-05 24.2628 1.83582e-05 24.3741 0.00983071 24.4802H3.9004C3.9004 24.3741 3.89059 24.2628 3.89059 24.1567C3.89059 23.8332 3.91021 23.5147 3.94946 23.2013L3.94946 2.03201C3.94946 0.909857 3.06636 0 1.9772 0C0.888031 0 0.00492549 0.909857 0.00492549 2.03201H1.81198e-05Z" fill="#3F73C8"/>
<path d="M12.7461 13.001V17.5149C12.7461 18.6471 13.6292 19.5671 14.7184 19.5671C15.8076 19.5671 16.6907 18.6471 16.6907 17.5149V13.001C16.6907 11.8687 15.8076 10.9487 14.7184 10.9487C13.6292 10.9487 12.7461 11.8687 12.7461 13.001Z" fill="#F9DD71"/>
<path d="M19.0506 21.9226L19.1094 24.1568C19.1094 28.4787 15.6997 31.9917 11.5 31.9917C7.30036 31.9917 4.06721 28.6556 3.9004 24.4803C3.9004 24.3742 3.89059 24.263 3.89059 24.1568C3.89059 23.8333 3.91021 23.5149 3.94946 23.2015C4.2978 20.2495 6.24063 17.803 8.86051 16.8022C8.94392 16.7718 9.02732 16.7415 9.11563 16.7162C9.12544 16.7162 9.13035 16.7061 9.14016 16.7061C9.37566 16.6 9.58662 16.4382 9.76815 16.2461C10.1263 15.8569 10.3471 15.3211 10.3471 14.7247V12.3691C8.93901 12.5157 7.60944 12.9201 6.39763 13.5418C5.50961 13.9917 4.69029 14.5579 3.94946 15.2251C1.53073 17.3885 1.52588e-05 20.5882 1.52588e-05 24.1568C1.52588e-05 24.263 1.52588e-05 24.3742 0.00982857 24.4803C0.17173 30.8746 5.2594 36.0001 11.5 36.0001C17.7406 36.0001 23 30.6977 23 24.1568C23 23.8637 23.0049 23.6008 23 23.2925V19.5216L19.0506 21.9226Z" fill="#0E2848"/>
<path d="M19.0506 17.2619V21.9881C19.0506 23.0041 19.9337 23.828 21.0228 23.828C22.112 23.828 23 23.0041 23 21.9881V17.2619C23 16.1246 22.1169 15.2046 21.0277 15.2046C19.9386 15.2046 19.0555 16.1246 19.0555 17.2619H19.0506Z" fill="#68CAAB"/>
<path d="M6.3927 10.4027V14.7295C6.3927 15.9174 7.2758 16.8778 8.36496 16.8778C8.53668 16.8778 8.70349 16.8525 8.86049 16.807C8.94389 16.7767 9.02729 16.7464 9.1156 16.7211C9.12542 16.7211 9.13032 16.711 9.14014 16.711C9.37563 16.6049 9.58659 16.4431 9.76812 16.251C10.1263 15.8618 10.347 15.326 10.347 14.7295V10.4027C10.347 9.2148 9.46394 8.25439 8.36987 8.25439C7.82529 8.25439 7.32977 8.49702 6.97162 8.88118C6.61838 9.2704 6.3976 9.80621 6.3976 10.4027H6.3927Z" fill="#EF6F3A"/>
</g>
<defs>
<clipPath id="clip0_879_1625">
<rect width="23" height="36" fill="white" transform="matrix(-1 0 0 1 23 0)"/>
</clipPath>
</defs>
</svg>
